<svg xmlns="http://www.w3.org/2000/svg" viewBox="0 0 2824 1608" width="2824" height="1608">
  <defs>
    <linearGradient id="bg" x1="0" y1="0" x2="1" y2="1">
      <stop offset="0%" stop-color="#0a0a0a"/>
      <stop offset="100%" stop-color="#1a1a1a"/>
    </linearGradient>
  </defs>

  <rect width="2824" height="1608" fill="url(#bg)"/>

  <!-- Component grid - representing GDS component library -->

  <!-- Row 1 -->
  <rect x="200" y="160" width="580" height="380" rx="12" fill="#111111" stroke="#333333" stroke-width="2"/>
  <rect x="220" y="200" width="540" height="48" rx="8" fill="#1a1a1a"/>
  <rect x="240" y="212" width="160" height="24" rx="4" fill="#FFE500" opacity="0.8"/>
  <rect x="420" y="212" width="100" height="24" rx="4" fill="#333333"/>
  <rect x="540" y="212" width="100" height="24" rx="4" fill="#333333"/>
  <rect x="220" y="270" width="540" height="240" rx="8" fill="#0d0d0d"/>
  <rect x="250" y="300" width="200" height="32" rx="6" fill="#FFE500"/>
  <text x="350" y="322" fill="#000000" font-family="system-ui, sans-serif" font-size="18" font-weight="bold" text-anchor="middle">Primary</text>
  <rect x="470" y="300" width="200" height="32" rx="6" fill="none" stroke="#FFE500" stroke-width="2"/>
  <text x="570" y="322" fill="#FFE500" font-family="system-ui, sans-serif" font-size="18" text-anchor="middle">Secondary</text>
  <rect x="250" y="360" width="200" height="32" rx="6" fill="#333333"/>
  <text x="350" y="382" fill="#ffffff" font-family="system-ui, sans-serif" font-size="18" text-anchor="middle">Ghost</text>
  <rect x="470" y="360" width="200" height="32" rx="6" fill="#dc2626"/>
  <text x="570" y="382" fill="#ffffff" font-family="system-ui, sans-serif" font-size="18" text-anchor="middle">Destructive</text>
  <text x="380" y="440" fill="#666666" font-family="system-ui, sans-serif" font-size="16" text-anchor="middle">+ 4 sizes · 2 icon slots · loading state</text>
  <text x="490" y="520" fill="#444444" font-family="system-ui, sans-serif" font-size="20" text-anchor="middle">BUTTON</text>

  <!-- Row 1, Col 2 -->
  <rect x="820" y="160" width="580" height="380" rx="12" fill="#111111" stroke="#333333" stroke-width="2"/>
  <rect x="860" y="200" width="500" height="60" rx="8" fill="#0d0d0d" stroke="#333333" stroke-width="1"/>
  <text x="880" y="236" fill="#666666" font-family="system-ui, sans-serif" font-size="20">Search...</text>
  <rect x="1280" y="210" width="60" height="40" rx="6" fill="#FFE500"/>
  <rect x="860" y="280" width="500" height="60" rx="8" fill="#0d0d0d" stroke="#FFE500" stroke-width="2"/>
  <text x="880" y="316" fill="#ffffff" font-family="system-ui, sans-serif" font-size="20">London, UK</text>
  <rect x="860" y="360" width="240" height="50" rx="8" fill="#0d0d0d" stroke="#333333" stroke-width="1"/>
  <text x="980" y="390" fill="#888888" font-family="system-ui, sans-serif" font-size="18" text-anchor="middle">Dropdown</text>
  <rect x="1120" y="360" width="240" height="50" rx="8" fill="#0d0d0d" stroke="#333333" stroke-width="1"/>
  <text x="1240" y="390" fill="#888888" font-family="system-ui, sans-serif" font-size="18" text-anchor="middle">Date Picker</text>
  <text x="1110" y="520" fill="#444444" font-family="system-ui, sans-serif" font-size="20" text-anchor="middle">FORM INPUTS</text>

  <!-- Row 1, Col 3 -->
  <rect x="1440" y="160" width="580" height="380" rx="12" fill="#111111" stroke="#333333" stroke-width="2"/>
  <rect x="1480" y="200" width="500" height="280" rx="8" fill="#0d0d0d"/>
  <rect x="1480" y="200" width="500" height="80" rx="8" fill="#1a1a1a"/>
  <rect x="1480" y="272" width="500" height="8" fill="#1a1a1a"/>
  <text x="1730" y="250" fill="#ffffff" font-family="system-ui, sans-serif" font-size="22" font-weight="bold" text-anchor="middle">Event Title</text>
  <text x="1730" y="320" fill="#888888" font-family="system-ui, sans-serif" font-size="18" text-anchor="middle">Venue Name · Date · Time</text>
  <text x="1730" y="356" fill="#666666" font-family="system-ui, sans-serif" font-size="16" text-anchor="middle">From $49.00</text>
  <rect x="1580" y="400" width="300" height="44" rx="8" fill="#FFE500"/>
  <text x="1730" y="428" fill="#000000" font-family="system-ui, sans-serif" font-size="18" font-weight="bold" text-anchor="middle">Get Tickets</text>
  <text x="1730" y="520" fill="#444444" font-family="system-ui, sans-serif" font-size="20" text-anchor="middle">EVENT CARD</text>

  <!-- Row 1, Col 4 -->
  <rect x="2060" y="160" width="580" height="380" rx="12" fill="#111111" stroke="#333333" stroke-width="2"/>
  <g transform="translate(2200,240)">
    <rect width="280" height="40" rx="20" fill="#0d0d0d" stroke="#333333" stroke-width="1"/>
    <circle cx="22" cy="20" r="14" fill="#FFE500"/>
    <rect x="50" y="12" width="80" height="16" rx="4" fill="#666666"/>
    <rect width="280" height="40" rx="20" fill="none" stroke="#333333" stroke-width="1" transform="translate(0,56)"/>
    <rect x="50" y="68" width="100" height="16" rx="4" fill="#666666"/>
    <rect width="280" height="40" rx="20" fill="none" stroke="#333333" stroke-width="1" transform="translate(0,112)"/>
    <rect x="50" y="124" width="70" height="16" rx="4" fill="#666666"/>
  </g>
  <text x="2350" y="520" fill="#444444" font-family="system-ui, sans-serif" font-size="20" text-anchor="middle">CHIP / TAG</text>

  <!-- Row 2 -->
  <rect x="200" y="600" width="580" height="380" rx="12" fill="#111111" stroke="#333333" stroke-width="2"/>
  <rect x="240" y="640" width="500" height="60" rx="0" fill="#FFE500"/>
  <text x="490" y="678" fill="#000000" font-family="system-ui, sans-serif" font-size="22" font-weight="bold" text-anchor="middle">Navigation Bar</text>
  <rect x="240" y="720" width="100" height="36" rx="4" fill="#333333"/>
  <rect x="360" y="720" width="100" height="36" rx="4" fill="#333333"/>
  <rect x="480" y="720" width="100" height="36" rx="4" fill="#1a1a1a" stroke="#FFE500" stroke-width="2"/>
  <rect x="600" y="720" width="100" height="36" rx="4" fill="#333333"/>
  <text x="490" y="960" fill="#444444" font-family="system-ui, sans-serif" font-size="20" text-anchor="middle">NAVIGATION</text>

  <rect x="820" y="600" width="580" height="380" rx="12" fill="#111111" stroke="#333333" stroke-width="2"/>
  <rect x="860" y="640" width="500" height="300" rx="8" fill="#0d0d0d"/>
  <rect x="880" y="660" width="460" height="2" fill="#333333"/>
  <rect x="880" y="700" width="460" height="2" fill="#333333"/>
  <rect x="880" y="740" width="460" height="2" fill="#333333"/>
  <rect x="880" y="780" width="460" height="2" fill="#333333"/>
  <rect x="880" y="660" width="2" height="200" fill="#333333"/>
  <rect x="1050" y="660" width="2" height="200" fill="#333333"/>
  <rect x="1220" y="660" width="2" height="200" fill="#333333"/>
  <text x="1110" y="960" fill="#444444" font-family="system-ui, sans-serif" font-size="20" text-anchor="middle">DATA TABLE</text>

  <rect x="1440" y="600" width="580" height="380" rx="12" fill="#111111" stroke="#FFE500" stroke-width="2"/>
  <text x="1730" y="760" fill="#FFE500" font-family="system-ui, sans-serif" font-size="64" font-weight="900" text-anchor="middle">50+</text>
  <text x="1730" y="810" fill="#888888" font-family="system-ui, sans-serif" font-size="24" text-anchor="middle">Components</text>
  <text x="1730" y="850" fill="#666666" font-family="system-ui, sans-serif" font-size="18" text-anchor="middle">8 products · 2 verticals</text>
  <text x="1730" y="960" fill="#FFE500" font-family="system-ui, sans-serif" font-size="20" text-anchor="middle">GLOBAL DESIGN SYSTEM</text>

  <rect x="2060" y="600" width="580" height="380" rx="12" fill="#111111" stroke="#333333" stroke-width="2"/>
  <circle cx="2350" cy="760" r="80" fill="none" stroke="#333333" stroke-width="2"/>
  <circle cx="2350" cy="760" r="60" fill="none" stroke="#FFE500" stroke-width="3" stroke-dasharray="120 260" stroke-dashoffset="-30"/>
  <text x="2350" y="772" fill="#FFE500" font-family="system-ui, sans-serif" font-size="32" font-weight="bold" text-anchor="middle">77d</text>
  <text x="2350" y="870" fill="#666666" font-family="system-ui, sans-serif" font-size="18" text-anchor="middle">Avg cycle time</text>
  <text x="2350" y="960" fill="#444444" font-family="system-ui, sans-serif" font-size="20" text-anchor="middle">PIPELINE</text>

  <!-- Bottom label -->
  <rect x="200" y="1060" width="2440" height="2" fill="#333333"/>
  <text x="1412" y="1120" fill="#333333" font-family="system-ui, sans-serif" font-size="22" text-anchor="middle" letter-spacing="6">TICKETMASTER GLOBAL DESIGN SYSTEM</text>
</svg>