<svg xmlns="http://www.w3.org/2000/svg" viewBox="0 0 2824 1608" width="2824" height="1608">
  <defs>
    <linearGradient id="bg" x1="0" y1="0" x2="1" y2="1">
      <stop offset="0%" stop-color="#0a0a0a"/>
      <stop offset="100%" stop-color="#1a1a1a"/>
    </linearGradient>
    <clipPath id="terminal">
      <rect x="362" y="280" width="2100" height="1100" rx="16"/>
    </clipPath>
  </defs>

  <rect width="2824" height="1608" fill="url(#bg)"/>

  <!-- Grid pattern -->
  <g opacity="0.04">
    <line x1="0" y1="0" x2="0" y2="1608" stroke="#FFFFFF" stroke-width="1" transform="translate(282,0)"/>
    <line x1="0" y1="0" x2="0" y2="1608" stroke="#FFFFFF" stroke-width="1" transform="translate(564,0)"/>
    <line x1="0" y1="0" x2="0" y2="1608" stroke="#FFFFFF" stroke-width="1" transform="translate(846,0)"/>
    <line x1="0" y1="0" x2="0" y2="1608" stroke="#FFFFFF" stroke-width="1" transform="translate(1128,0)"/>
    <line x1="0" y1="0" x2="0" y2="1608" stroke="#FFFFFF" stroke-width="1" transform="translate(1412,0)"/>
    <line x1="0" y1="0" x2="0" y2="1608" stroke="#FFFFFF" stroke-width="1" transform="translate(1694,0)"/>
    <line x1="0" y1="0" x2="0" y2="1608" stroke="#FFFFFF" stroke-width="1" transform="translate(1976,0)"/>
    <line x1="0" y1="0" x2="0" y2="1608" stroke="#FFFFFF" stroke-width="1" transform="translate(2258,0)"/>
    <line x1="0" y1="0" x2="0" y2="1608" stroke="#FFFFFF" stroke-width="1" transform="translate(2540,0)"/>
  </g>

  <!-- Terminal window -->
  <rect x="362" y="280" width="2100" height="1100" rx="16" fill="#111111" stroke="#333333" stroke-width="2"/>

  <!-- Terminal title bar -->
  <rect x="362" y="280" width="2100" height="48" rx="16" fill="#1a1a1a"/>
  <rect x="362" y="312" width="2100" height="16" fill="#1a1a1a"/>
  <circle cx="400" cy="304" r="8" fill="#ff5f56"/>
  <circle cx="428" cy="304" r="8" fill="#ffbd2e"/>
  <circle cx="456" cy="304" r="8" fill="#27c93f"/>

  <!-- Terminal content -->
  <g clip-path="url(#terminal)">
    <!-- MCP query line -->
    <text x="400" y="380" fill="#FFFFFF" font-family="monospace" font-size="28" font-weight="bold">$</text>
    <text x="430" y="380" fill="#888888" font-family="monospace" font-size="28"> mcp query</text>
    <text x="680" y="380" fill="#ffffff" font-family="monospace" font-size="28"> "button component variants"</text>

    <!-- Response block -->
    <rect x="400" y="410" width="4" height="200" fill="#FFFFFF" opacity="0.6"/>
    <text x="424" y="440" fill="#999999" font-family="monospace" font-size="24">GDS-DOCS MCP Server v2.1</text>
    <text x="424" y="480" fill="#ffffff" font-family="monospace" font-size="24">Component: Button</text>
    <text x="424" y="516" fill="#888888" font-family="monospace" font-size="24">Variants: primary, secondary, ghost, destructive</text>
    <text x="424" y="552" fill="#888888" font-family="monospace" font-size="24">Sizes: sm, md, lg</text>
    <text x="424" y="588" fill="#888888" font-family="monospace" font-size="24">Accessibility: WCAG 2.1 AA ✓</text>

    <!-- Second query -->
    <text x="400" y="660" fill="#FFFFFF" font-family="monospace" font-size="28" font-weight="bold">$</text>
    <text x="430" y="660" fill="#888888" font-family="monospace" font-size="28"> mcp query</text>
    <text x="680" y="660" fill="#ffffff" font-family="monospace" font-size="28"> "token spacing.md"</text>

    <rect x="400" y="690" width="4" height="160" fill="#FFFFFF" opacity="0.6"/>
    <text x="424" y="720" fill="#ffffff" font-family="monospace" font-size="24">Foundation: Spacing</text>
    <text x="424" y="756" fill="#888888" font-family="monospace" font-size="24">Base: 4px | Scale: 4, 8, 12, 16, 24, 32, 48, 64</text>
    <text x="424" y="792" fill="#888888" font-family="monospace" font-size="24">Tokens: space.xs → space.3xl</text>
    <text x="424" y="828" fill="#888888" font-family="monospace" font-size="24">CSS: --gds-space-{size}</text>

    <!-- Third query -->
    <text x="400" y="900" fill="#FFFFFF" font-family="monospace" font-size="28" font-weight="bold">$</text>
    <text x="430" y="900" fill="#888888" font-family="monospace" font-size="28"> mcp tools</text>

    <text x="424" y="940" fill="#999999" font-family="monospace" font-size="24">Available: 5 tools, 50+ components, 8 foundations</text>
    <text x="424" y="976" fill="#888888" font-family="monospace" font-size="24">Layers: atoms · molecules · organisms · patterns</text>
    <text x="424" y="1012" fill="#27c93f" font-family="monospace" font-size="24">Status: Connected ●</text>
  </g>

  <!-- Floating badge -->
  <rect x="1900" y="180" width="360" height="60" rx="8" fill="#FFFFFF"/>
  <text x="2080" y="218" fill="#000000" font-family="system-ui, sans-serif" font-size="24" font-weight="bold" text-anchor="middle">MCP PROTOCOL</text>

  <!-- Connection lines from badge to terminal -->
  <line x1="2080" y1="240" x2="2080" y2="280" stroke="#FFFFFF" stroke-width="2" opacity="0.4"/>
</svg>