<svg xmlns="http://www.w3.org/2000/svg" viewBox="0 0 2824 1608" width="2824" height="1608">
  <defs>
    <linearGradient id="bg" x1="0" y1="0" x2="1" y2="1">
      <stop offset="0%" stop-color="#0a0a0a"/>
      <stop offset="100%" stop-color="#1a1a1a"/>
    </linearGradient>
  </defs>

  <rect width="2824" height="1608" fill="url(#bg)"/>

  <!-- Three phases visualization -->

  <!-- Phase 1: Personal -->
  <rect x="150" y="200" width="800" height="1100" rx="16" fill="#111111" stroke="#FFFFFF" stroke-width="3"/>
  <rect x="150" y="200" width="800" height="80" rx="16" fill="#FFFFFF" opacity="0.1"/>
  <rect x="150" y="264" width="800" height="16" fill="#111111"/>
  <text x="550" y="252" fill="#FFFFFF" font-family="system-ui, sans-serif" font-size="24" font-weight="bold" text-anchor="middle">PHASE 1 - PERSONAL</text>

  <!-- Skills list -->
  <g transform="translate(200,320)">
    <rect width="680" height="56" rx="8" fill="#1a1a1a" stroke="#333333" stroke-width="1"/>
    <circle cx="30" cy="28" r="10" fill="#27c93f"/>
    <text x="56" y="34" fill="#ffffff" font-family="system-ui, sans-serif" font-size="20">/morning</text>
    <text x="660" y="34" fill="#27c93f" font-family="system-ui, sans-serif" font-size="16" text-anchor="end">LIVE</text>

    <rect y="68" width="680" height="56" rx="8" fill="#1a1a1a" stroke="#333333" stroke-width="1"/>
    <circle cx="30" cy="96" r="10" fill="#27c93f"/>
    <text x="56" y="102" fill="#ffffff" font-family="system-ui, sans-serif" font-size="20">/meeting-prep</text>
    <text x="660" y="102" fill="#27c93f" font-family="system-ui, sans-serif" font-size="16" text-anchor="end">LIVE</text>

    <rect y="136" width="680" height="56" rx="8" fill="#1a1a1a" stroke="#333333" stroke-width="1"/>
    <circle cx="30" cy="164" r="10" fill="#27c93f"/>
    <text x="56" y="170" fill="#ffffff" font-family="system-ui, sans-serif" font-size="20">/daily-focus</text>
    <text x="660" y="170" fill="#27c93f" font-family="system-ui, sans-serif" font-size="16" text-anchor="end">LIVE</text>

    <rect y="204" width="680" height="56" rx="8" fill="#1a1a1a" stroke="#333333" stroke-width="1"/>
    <circle cx="30" cy="232" r="10" fill="#27c93f"/>
    <text x="56" y="238" fill="#ffffff" font-family="system-ui, sans-serif" font-size="20">/weekly-plan</text>
    <text x="660" y="238" fill="#27c93f" font-family="system-ui, sans-serif" font-size="16" text-anchor="end">LIVE</text>

    <rect y="272" width="680" height="56" rx="8" fill="#1a1a1a" stroke="#333333" stroke-width="1"/>
    <circle cx="30" cy="300" r="10" fill="#27c93f"/>
    <text x="56" y="306" fill="#ffffff" font-family="system-ui, sans-serif" font-size="20">/end-of-day</text>
    <text x="660" y="306" fill="#27c93f" font-family="system-ui, sans-serif" font-size="16" text-anchor="end">LIVE</text>

    <rect y="340" width="680" height="56" rx="8" fill="#1a1a1a" stroke="#333333" stroke-width="1"/>
    <circle cx="30" cy="368" r="10" fill="#27c93f"/>
    <text x="56" y="374" fill="#ffffff" font-family="system-ui, sans-serif" font-size="20">/sprint-update</text>
    <text x="660" y="374" fill="#27c93f" font-family="system-ui, sans-serif" font-size="16" text-anchor="end">LIVE</text>

    <rect y="408" width="680" height="56" rx="8" fill="#1a1a1a" stroke="#333333" stroke-width="1"/>
    <circle cx="30" cy="436" r="10" fill="#27c93f"/>
    <text x="56" y="442" fill="#ffffff" font-family="system-ui, sans-serif" font-size="20">/clean-inbox</text>
    <text x="660" y="442" fill="#27c93f" font-family="system-ui, sans-serif" font-size="16" text-anchor="end">LIVE</text>

    <rect y="476" width="680" height="56" rx="8" fill="#1a1a1a" stroke="#333333" stroke-width="1"/>
    <circle cx="30" cy="504" r="10" fill="#27c93f"/>
    <text x="56" y="510" fill="#ffffff" font-family="system-ui, sans-serif" font-size="20">/distribute</text>
    <text x="660" y="510" fill="#27c93f" font-family="system-ui, sans-serif" font-size="16" text-anchor="end">LIVE</text>
  </g>

  <text x="550" y="920" fill="#FFFFFF" font-family="system-ui, sans-serif" font-size="36" font-weight="900" text-anchor="middle">10</text>
  <text x="550" y="955" fill="#888888" font-family="system-ui, sans-serif" font-size="18" text-anchor="middle">Skills operational</text>

  <!-- Arrow -->
  <line x1="960" y1="750" x2="1000" y2="750" stroke="#FFFFFF" stroke-width="3"/>
  <polygon points="1000,738 1020,750 1000,762" fill="#FFFFFF"/>

  <!-- Phase 2: Team -->
  <rect x="1030" y="200" width="800" height="1100" rx="16" fill="#111111" stroke="#FFFFFF" stroke-width="2" opacity="0.8"/>
  <rect x="1030" y="200" width="800" height="80" rx="16" fill="#FFFFFF" opacity="0.06"/>
  <rect x="1030" y="264" width="800" height="16" fill="#111111"/>
  <text x="1430" y="252" fill="#FFFFFF" font-family="system-ui, sans-serif" font-size="24" font-weight="bold" text-anchor="middle" opacity="0.8">PHASE 2 - TEAM</text>

  <g transform="translate(1080,320)">
    <rect width="680" height="56" rx="8" fill="#1a1a1a" stroke="#27c93f" stroke-width="1"/>
    <circle cx="30" cy="28" r="10" fill="#27c93f"/>
    <text x="56" y="34" fill="#ffffff" font-family="system-ui, sans-serif" font-size="20">Component Creation Skill</text>
    <text x="660" y="34" fill="#27c93f" font-family="system-ui, sans-serif" font-size="16" text-anchor="end">SHIPPED</text>

    <rect y="68" width="680" height="56" rx="8" fill="#1a1a1a" stroke="#27c93f" stroke-width="1"/>
    <circle cx="30" cy="96" r="10" fill="#27c93f"/>
    <text x="56" y="102" fill="#ffffff" font-family="system-ui, sans-serif" font-size="20">Token Attachment Skill</text>
    <text x="660" y="102" fill="#27c93f" font-family="system-ui, sans-serif" font-size="16" text-anchor="end">SHIPPED</text>

    <rect y="136" width="680" height="56" rx="8" fill="#1a1a1a" stroke="#FFFFFF" stroke-width="1"/>
    <circle cx="30" cy="164" r="10" fill="#FFFFFF"/>
    <text x="56" y="170" fill="#ffffff" font-family="system-ui, sans-serif" font-size="20">Code-Ready Workflow</text>
    <text x="660" y="170" fill="#FFFFFF" font-family="system-ui, sans-serif" font-size="16" text-anchor="end">PILOT</text>

    <rect y="204" width="680" height="56" rx="8" fill="#1a1a1a" stroke="#FFFFFF" stroke-width="1"/>
    <circle cx="30" cy="232" r="10" fill="#FFFFFF"/>
    <text x="56" y="238" fill="#ffffff" font-family="system-ui, sans-serif" font-size="20">Research Agent</text>
    <text x="660" y="238" fill="#FFFFFF" font-family="system-ui, sans-serif" font-size="16" text-anchor="end">SCOPED</text>

    <rect y="272" width="680" height="56" rx="8" fill="#1a1a1a" stroke="#333333" stroke-width="1"/>
    <circle cx="30" cy="300" r="10" fill="#333333"/>
    <text x="56" y="306" fill="#888888" font-family="system-ui, sans-serif" font-size="20">Confidence Scoring</text>
    <text x="660" y="306" fill="#666666" font-family="system-ui, sans-serif" font-size="16" text-anchor="end">PLANNED</text>
  </g>

  <text x="1430" y="740" fill="#888888" font-family="system-ui, sans-serif" font-size="18" text-anchor="middle">3 teams piloting</text>

  <!-- Arrow -->
  <line x1="1840" y1="750" x2="1880" y2="750" stroke="#FFFFFF" stroke-width="3" opacity="0.5"/>
  <polygon points="1880,738 1900,750 1880,762" fill="#FFFFFF" opacity="0.5"/>

  <!-- Phase 3: Org -->
  <rect x="1910" y="200" width="780" height="1100" rx="16" fill="#111111" stroke="#FFFFFF" stroke-width="2" opacity="0.5" stroke-dasharray="8 4"/>
  <rect x="1910" y="200" width="780" height="80" rx="16" fill="#FFFFFF" opacity="0.03"/>
  <rect x="1910" y="264" width="780" height="16" fill="#111111"/>
  <text x="2300" y="252" fill="#FFFFFF" font-family="system-ui, sans-serif" font-size="24" font-weight="bold" text-anchor="middle" opacity="0.5">PHASE 3 - ORG</text>

  <g transform="translate(1960,320)" opacity="0.5">
    <rect width="680" height="56" rx="8" fill="#1a1a1a" stroke="#333333" stroke-width="1"/>
    <text x="20" y="34" fill="#888888" font-family="system-ui, sans-serif" font-size="20">Self-Service Component Guidance</text>

    <rect y="68" width="680" height="56" rx="8" fill="#1a1a1a" stroke="#333333" stroke-width="1"/>
    <text x="20" y="102" fill="#888888" font-family="system-ui, sans-serif" font-size="20">Cross-Product Consistency Checks</text>

    <rect y="136" width="680" height="56" rx="8" fill="#1a1a1a" stroke="#333333" stroke-width="1"/>
    <text x="20" y="170" fill="#888888" font-family="system-ui, sans-serif" font-size="20">Shared Skills Repository</text>

    <rect y="204" width="680" height="56" rx="8" fill="#1a1a1a" stroke="#333333" stroke-width="1"/>
    <text x="20" y="238" fill="#888888" font-family="system-ui, sans-serif" font-size="20">Documentation Automation</text>

    <rect y="272" width="680" height="56" rx="8" fill="#1a1a1a" stroke="#333333" stroke-width="1"/>
    <text x="20" y="306" fill="#888888" font-family="system-ui, sans-serif" font-size="20">Full AI Ops Maturity</text>
  </g>

  <text x="2300" y="740" fill="#666666" font-family="system-ui, sans-serif" font-size="18" text-anchor="middle">12-month roadmap</text>

  <!-- Bottom stat -->
  <text x="1412" y="1440" fill="#333333" font-family="system-ui, sans-serif" font-size="20" text-anchor="middle" letter-spacing="6">AI-POWERED DESIGN OPERATIONS</text>

  <!-- Target metric -->
  <text x="550" y="1080" fill="#FFFFFF" font-family="system-ui, sans-serif" font-size="20" text-anchor="middle">Cycle time target</text>
  <text x="550" y="1140" fill="#FFFFFF" font-family="system-ui, sans-serif" font-size="64" font-weight="900" text-anchor="middle">-22%</text>
  <text x="550" y="1180" fill="#666666" font-family="system-ui, sans-serif" font-size="18" text-anchor="middle">77d → 60d</text>
</svg>